<svg width="128" height="128" viewBox="0 0 128 128" fill="none" xmlns="http://www.w3.org/2000/svg">
  <path d="M23.7127 50.141L10.9614 37.3896C-3.6538 52.0049 -3.6538 75.7036 10.9614 90.3188L23.7127 77.5674C20.0761 73.9303 18.033 68.9976 18.033 63.8542C18.033 58.7109 20.0761 53.7781 23.7127 50.141Z" fill="#E8710A"/>
  <path d="M10.9614 37.3898L23.7128 50.1411C27.3499 46.5044 32.2826 44.4614 37.426 44.4614C42.5693 44.4614 47.5021 46.5044 51.1392 50.1411L60.3949 34.3002C60.2115 34.1567 60.0243 34.0157 59.8335 33.8773C45.1808 22.8868 24.2929 24.0564 10.9614 37.3898Z" fill="#F9AB00"/>
  <path d="M60.4435 93.3635L51.1298 77.5675C47.4927 81.2042 42.56 83.2472 37.4166 83.2472C32.2733 83.2472 27.3405 81.2042 23.7034 77.5675L10.9614 90.3189C24.2929 103.65 45.1827 104.822 59.841 93.8314C60.0468 93.6779 60.4529 93.3635 60.4529 93.3635" fill="#F9AB00"/>
  <path d="M64.1075 37.3897C49.4923 52.0049 49.4923 75.7036 64.1075 90.3188L76.8589 77.5675C75.025 75.774 73.5651 73.6345 72.5637 71.2729C71.5623 68.9113 71.0393 66.3746 71.025 63.8095C71.0107 61.2444 71.5054 58.702 72.4804 56.3294C73.4555 53.9568 74.8914 51.8012 76.7053 49.9874C78.5191 48.1736 80.6747 46.7376 83.0472 45.7626C85.4198 44.7876 87.9623 44.2929 90.5273 44.3072C93.0924 44.3215 95.6292 44.8444 97.9908 45.8458C100.352 46.8472 102.492 48.3071 104.285 50.141L117.037 37.3897C102.421 22.7726 78.7227 22.7726 64.1075 37.3897Z" fill="#F9AB00"/>
  <path d="M117.037 37.3896L104.285 50.141C107.856 53.7917 109.842 58.7032 109.814 63.8095C109.785 68.9157 107.744 73.8048 104.133 77.4155C100.523 81.0262 95.6336 83.0673 90.5274 83.0958C85.4211 83.1242 80.5096 81.1377 76.8589 77.5674L64.1075 90.3188C78.7227 104.934 102.421 104.934 117.037 90.3188C131.652 75.7036 131.654 52.0049 117.037 37.3896Z" fill="#E8710A"/>
</svg>